<?xml version="1.0" encoding="utf-8"?>
<!-- Generator: Adobe Illustrator 24.2.0, SVG Export Plug-In . SVG Version: 6.00 Build 0)  -->
<svg version="1.1" id="Layer_1" xmlns="http://www.w3.org/2000/svg" xmlns:xlink="http://www.w3.org/1999/xlink" x="0px" y="0px"
	 viewBox="0 0 323.3 332.2" style="enable-background:new 0 0 323.3 332.2;" xml:space="preserve">
<style type="text/css">
	.st0{fill:#FFC72F;}
	.st1{fill:#016B69;}
	.st2{fill:#FFFFFF;stroke:#000000;stroke-miterlimit:10;}
</style>
<g>
	<path class="st0" d="M-729.9-20.6c24.4-20,61.3-23.8,88.7-7.5c11,6.9,21.7,15.6,27.4,27.5c-15.9,7.5-30.3,18.1-42.4,30.8
		c-6,6.3-9.5,14.9-16.7,20.2c-3.7,2.8-8.6,1.5-12.6,0c-15.4-6.4-32.3-8.3-48.8-9.1c-3.7,0-9.2,0.2-10,4.8c-0.8,6,1.7,11.8,3.2,17.5
		c3.9,14.9,10.4,29.2,19.6,41.7c4.8,6.4,11.8,11.3,14.8,18.9c1.9,5.4-2.9,9.8-6.2,13.4c-7.3,6.6-12.8,14.9-17.8,23.2
		c-4.9,8.4-8.7,17.4-11,26.8c-3.6-0.5-7.7-0.1-10.9-2.2c-2.2-1.8-1.4-4.9-0.7-7.3c5.2-14.4,11.9-28.4,21.5-40.4
		c2.5-3.1,5.7-6,6.9-10c0.7-2.8-1-5.3-2.6-7.4c-9.2-10.8-16.1-23.4-21.4-36.6c-7.7-19.7-11.3-41.5-6.9-62.4
		C-752.3,4.9-742.9-10.1-729.9-20.6z"/>
	<path class="st0" d="M-608.5,2.2c21.5-9.4,47.1-7.4,67.7,3.3c17.5,8.9,31.3,24.8,37.2,43.6c7.8,23.3,2.1,49.2-9.9,70.1
		c-1.5,2.2-4.1,4.5-7,3.4c-3.9-1.7-6.2-5.5-9.4-8.1c-15.3-13-33.2-23.1-52.5-28.8c-2.8-0.8-5.5-2.6-6.1-5.5
		c-2.6-9.5-0.2-19.5-1.5-29.2c-1.7-13-6.8-25.2-10.2-37.8c-18.1,10.5-36.5,21.8-49.8,38.4c-5.4,7.4-8.5,16.4-15.1,22.9
		c-2.7,2.8-7,2-10.3,1.2c-8.5-2.4-16.1-7.1-24.3-10.3c-10.2-3.8-21.6-1.2-31.6-5.3c-4.8-1.9-7.3-7.1-7.3-12
		c16.6,0.2,33.6,1.1,49.4,6.6c4.2,1.7,8.3,4,12.9,4.6c2.7,0.5,5.1-1.4,7-3.2c6.2-6.3,9.8-14.7,15.8-21.2
		C-640.4,21.8-625.7,9.5-608.5,2.2z"/>
	<path class="st0" d="M-614.9,25.9c3.9-1.8,7.8-3.5,11.6-5.3c4.4,11.7,7.8,24,8.4,36.5c0.4,8.7-2.1,17.5,0,26.1
		c0.8,3.9,4.5,6,7.9,7.4c8.2,3.5,17.3,4.5,25.3,8.6c11.7,5.6,22.9,12.7,32.4,21.6c27.5,25.4,35.3,69.8,17.4,102.8
		c-8.4,15.9-23.4,28-40.6,33.3c-17.9,5.8-37.4,3.9-55.1-1.8c3.5-19.3,13.6-36.7,16.3-56.2c1.2-7.2-1.4-14.7,0.8-21.8
		c1.4-4.2,6.1-5.4,9.9-6.5c16.4-3.8,30.9-12.8,44.7-21.9c2.8-2,6.9-5.2,4.8-9.1c-3-5.4-8.4-8.9-13.1-12.8
		c-12-9.6-25.5-17.3-40.1-22.2c-7.4-2.4-15.7-1.9-22.6-5.9c-4.2-2.8-2.6-8.6-2.1-12.8c2.6-10.5,1-21.5-0.7-32
		C-611.3,44.6-613.5,35.3-614.9,25.9z"/>
	<path class="st0" d="M-784.5,59.8c6.6-4.3,13.8-7.8,21.7-8.6c3,15.3,6.6,30.7,13.7,44.6c4.4,9,12.1,16,16.2,25.2
		c1.3,2.8,1.8,6.2,0.4,9.1c-2.8,6.4-8.2,11.1-11.8,17.1c-7.9,13.2-14.3,27.4-17.5,42.5c18.7,2.4,37.8,4.2,56.4,0
		c10.9-1.9,20-9.2,30.9-11.3c2.7-0.6,5.9-0.2,7.8,2.1c5.4,6,7.5,14.2,12.4,20.6c8.4,11.6,18.7,22.1,30.9,29.6
		c-0.9,3.5-1.8,7.3-4.5,9.8c-2.4,2.1-5.7,0.4-7.8-1.1c-13.1-10.4-25.6-22.2-33.9-36.9c-1.9-3.2-4.3-7.2-8.6-7.2
		c-8.2,0-15.8,3.8-23.5,6.3c-6.6,2.6-13.7,3.2-20.7,3.9c-17.2,1.4-34.9-0.1-51-6.5c-15.6-6.1-29.4-17.2-38.3-31.5
		c-8.4-13.4-12.4-29.6-11.3-45.5c1-16,7.2-31.7,17.5-44C-799.6,70.8-792.3,64.9-784.5,59.8z"/>
	<path class="st0" d="M-564.9,144.6c6.4-3.2,11.4-9,18.6-10.8c5.3-0.9,8.6,4.3,10.8,8.3c-10.9,7.8-22.2,15.1-34.7,19.9
		c-7,2.7-14.9,3.1-21.7,6.6c-2.4,1.2-4.4,3.2-4.9,5.9c-1.4,6.1-0.6,12.4-0.4,18.6c0.7,8.5-1.2,16.9-2.9,25.2
		c-4,17.8-11.6,35.3-24.2,48.8c-18.2,19.8-46.5,30.4-73.2,25.8c-17.6-2.9-33.8-12.8-44.8-26.8c-12.6-15.8-17.5-36.4-17.4-56.3
		c16.1-0.1,32.2-0.3,48.3-0.4c4.7,0.2,9.2-1.5,13.8-2.5c6.4-1.5,12.8-3,19.2-4.6c7,7.6,12.8,16.4,21,22.9
		c9.9,8.6,19.9,17.2,29.8,25.8c7.5-17.7,16.8-35.2,17.9-54.7c0.5-9.7,0.9-19.5-0.7-29.1c-0.3-2.6-0.8-5.8,1.3-7.7
		c2.4-2,5.6-2.4,8.6-3C-588,154.9-576,150.3-564.9,144.6z"/>
</g>
<g>
	<path class="st0" d="M93.4,17.7c24.4-20,61.3-23.8,88.7-7.5c11,6.9,21.7,15.6,27.4,27.5c-15.9,7.5-30.3,18.1-42.4,30.8
		c-6,6.3-9.6,14.9-16.7,20.2c-3.7,2.8-8.6,1.5-12.6,0c-15.4-6.4-32.3-8.3-48.8-9.1c-3.7,0-9.2,0.2-10,4.8c-0.8,6,1.7,11.8,3.2,17.5
		c3.9,14.9,10.4,29.2,19.6,41.7c4.8,6.4,11.8,11.3,14.8,18.9c1.9,5.4-2.9,9.8-6.2,13.4c-7.3,6.6-12.8,14.9-17.8,23.2
		c-4.9,8.4-8.7,17.4-11,26.8c-3.6-0.5-7.7-0.1-10.9-2.2c-2.2-1.8-1.4-4.9-0.6-7.3c5.2-14.4,11.9-28.4,21.5-40.4
		c2.5-3.1,5.7-6,6.9-10c0.7-2.8-1-5.3-2.6-7.4c-9.2-10.8-16.1-23.4-21.4-36.6c-7.7-19.7-11.3-41.5-6.9-62.4
		C70.9,43.1,80.3,28.1,93.4,17.7z"/>
	<path class="st0" d="M214.8,40.5c21.5-9.4,47.1-7.4,67.7,3.3c17.5,8.9,31.3,24.8,37.2,43.6c7.8,23.3,2.1,49.2-9.9,70.1
		c-1.5,2.2-4.1,4.6-6.9,3.4c-3.9-1.7-6.2-5.5-9.4-8.1c-15.3-13-33.2-23.1-52.5-28.8c-2.8-0.8-5.5-2.6-6.1-5.5
		c-2.6-9.5-0.2-19.5-1.5-29.2c-1.7-13-6.8-25.2-10.2-37.8C205,62,186.6,73.2,173.3,89.8c-5.4,7.4-8.5,16.4-15.1,22.9
		c-2.7,2.8-7,2-10.3,1.2c-8.5-2.4-16.1-7.1-24.3-10.3c-10.2-3.8-21.6-1.2-31.6-5.3c-4.8-1.9-7.3-7.1-7.3-12
		c16.6,0.2,33.6,1.1,49.4,6.6c4.2,1.7,8.3,4,12.9,4.6c2.7,0.5,5.1-1.3,7-3.2c6.2-6.3,9.8-14.7,15.8-21.2
		C182.8,60.1,197.5,47.8,214.8,40.5z"/>
	<path class="st0" d="M208.3,64.1c3.9-1.8,7.8-3.5,11.6-5.3c4.4,11.7,7.8,24,8.4,36.5c0.4,8.7-2.1,17.5,0.1,26.1
		c0.8,3.9,4.5,6,7.9,7.4c8.2,3.5,17.3,4.5,25.3,8.6c11.7,5.6,22.9,12.7,32.4,21.6c27.5,25.4,35.3,69.8,17.4,102.8
		c-8.4,15.9-23.4,28-40.6,33.3c-17.9,5.8-37.4,3.9-55.1-1.8c3.5-19.3,13.6-36.7,16.4-56.2c1.2-7.2-1.4-14.7,0.8-21.8
		c1.4-4.2,6.1-5.4,9.9-6.5c16.4-3.8,30.9-12.8,44.7-21.9c2.8-2,6.8-5.2,4.8-9.1c-3-5.4-8.4-8.9-13.1-12.8
		c-12-9.6-25.5-17.3-40.1-22.2c-7.4-2.4-15.7-1.9-22.6-5.9c-4.2-2.8-2.6-8.6-2.1-12.8c2.6-10.5,1-21.5-0.7-32
		C211.9,82.9,209.7,73.6,208.3,64.1z"/>
	<path class="st0" d="M38.7,98.1c6.6-4.3,13.8-7.8,21.7-8.6c3,15.3,6.7,30.7,13.7,44.6c4.4,9,12.1,16,16.2,25.2
		c1.3,2.8,1.8,6.2,0.4,9.1c-2.8,6.4-8.2,11.1-11.8,17.1c-7.9,13.2-14.3,27.4-17.5,42.5c18.7,2.4,37.8,4.2,56.4,0
		c10.9-1.9,20-9.2,30.9-11.3c2.7-0.6,5.9-0.2,7.8,2.1c5.4,6,7.6,14.2,12.4,20.6c8.4,11.6,18.7,22.1,30.9,29.6
		c-0.9,3.5-1.8,7.3-4.5,9.8c-2.4,2.1-5.7,0.5-7.8-1.1c-13.1-10.4-25.6-22.2-33.9-36.9c-1.9-3.2-4.4-7.2-8.6-7.2
		c-8.2,0-15.8,3.8-23.5,6.3c-6.6,2.6-13.7,3.2-20.6,3.9c-17.2,1.4-34.9-0.1-51.1-6.5c-15.6-6.1-29.4-17.2-38.3-31.5
		c-8.4-13.4-12.4-29.6-11.3-45.4c1-16,7.2-31.7,17.5-44C23.6,109.1,30.9,103.2,38.7,98.1z"/>
	<path class="st0" d="M258.3,182.9c6.4-3.2,11.4-9,18.6-10.8c5.3-0.9,8.6,4.3,10.8,8.3c-10.9,7.8-22.2,15.1-34.7,19.9
		c-7.1,2.7-14.9,3.1-21.7,6.6c-2.4,1.2-4.4,3.2-4.9,5.9c-1.4,6.1-0.6,12.4-0.4,18.6c0.7,8.5-1.2,16.9-2.9,25.2
		c-4,17.8-11.6,35.3-24.2,48.8c-18.2,19.8-46.5,30.4-73.2,25.8c-17.6-2.9-33.8-12.8-44.8-26.8c-12.6-15.8-17.5-36.4-17.4-56.3
		c16.1-0.1,32.2-0.3,48.3-0.4c4.7,0.2,9.2-1.5,13.8-2.5c6.4-1.5,12.8-3,19.2-4.6c7,7.6,12.8,16.4,21,22.9
		c9.9,8.6,19.9,17.2,29.8,25.8c7.5-17.7,16.8-35.2,17.9-54.7c0.5-9.7,0.9-19.5-0.7-29.1c-0.3-2.6-0.8-5.8,1.3-7.7
		c2.4-2,5.6-2.4,8.6-3C235.2,193.2,247.2,188.6,258.3,182.9z"/>
</g>
<g>
	<g>
		<path class="st1" d="M-1713.3,42.7c33.3-0.4,66.8-4.4,99.9,0.1c19.8,2.7,39.8,8.9,55.3,22c15.3,12.9,23.5,32.7,25,52.4
			c1.7,22-4.7,45.6-20.7,61.4c-9.3,9.2-21.5,14.2-33.2,19.5c14.9,3.5,28.8,11.2,39.6,22.1c14.9,15,23.9,35.7,25,56.8
			c1.1,19-4.2,38.4-15.2,54c-11.3,16.2-28.8,27.5-47.5,33.3c-14,4.3-28.7,5-43.2,5c-31.7-0.1-63.3,0-95,0c-13-0.1-26.2,2.6-39.1,0.3
			c-4-0.8-8.3-2.2-10.7-5.7c-2.3-3.5-3-7.8-3.4-11.9c-1.1-12,1.2-24,1.3-36c0-76.3,0-152.7,0-229c0.1-10.1-1.9-20.2-0.3-30.3
			c0.7-4.4,2.3-9.2,6.3-11.7c4.4-2.8,9.9-2.4,14.9-2.4C-1740.7,42.8-1727,42.8-1713.3,42.7z M-1718.2,88.2c0,30.6,0,61.3,0,91.9
			c23.9,0,47.9,0,71.8,0c10.6,0,21.7-0.6,31.3-5.5c10-4.9,16.9-14.5,20.3-24.9c4.2-12.7,4-27.2-2.2-39.2
			c-3.5-6.9-9.2-12.6-16.1-15.9c-10.9-5.5-23.4-6.3-35.4-6.4C-1671.6,88.2-1694.9,88.2-1718.2,88.2z M-1718.2,220.3
			c0,34.5,0,69,0,103.5c25.9,0,51.9,0,77.8,0c10.2-0.1,20.7-0.8,30.3-4.5c10.5-3.8,19.4-11.6,24.4-21.6c7.9-15.4,7.6-34.6-0.3-50
			c-5.1-10.2-14.1-18.3-24.7-22.3c-11.6-4.7-24.3-5.1-36.7-5.1C-1671,220.3-1694.6,220.3-1718.2,220.3z"/>
	</g>
	<path class="st1" d="M-1152.8,42.8c15-0.3,30.1-2.9,45.2-1c6.4,0.9,13.3,2.9,17.5,8.1c4.9,6.1,6.3,14,8.8,21.1
		c21.6,63.2,42.6,126.6,64,189.9c6.3,17.9,10.1,36.6,16.7,54.3c12.3-43.6,27.4-86.4,42.1-129.2c6.3-18.6,13.1-37.1,18.4-56.1
		c5.8-20.1,10.9-40.6,20.2-59.5c3.8-7.5,7.9-15.3,15-20.1c10.3-7.3,23.4-8.2,35.6-8.1c9.3,0,18.6,0.9,27.9,0
		c5.2-0.2,10.8-0.8,15.8,1.2c3.3,1.3,2.6,5.6,0.8,7.9c-6.1,8.2-16.9,10.8-23.9,18.1c-11.5,11.4-18,26.6-23.6,41.5
		c-12.9,35-25.3,70.3-37.5,105.6c-14.7,42.4-28.5,85.1-43.6,127.3c-2.9,7.1-3.6,14.9-7.4,21.6c-2.5,4.5-8.2,4.3-12.6,4
		c-18.9-1.7-38.4,3.7-56.8-2.6c-10.2-3.4-15.8-13.5-19.3-23c-13.7-36.8-25.2-74.4-38.2-111.4c-13.3-38.7-26.7-77.3-40.2-115.9
		C-1136.7,92.3-1148.6,68.7-1152.8,42.8z"/>
	<g>
		<path class="st1" d="M-1413.4,50c2.9-5.8,10-7.6,16-7.6c27,0.7,54,0.2,81.1,0.3c26.8,0.1,53.9,0,80.1,6.5
			c18.9,4.6,36.9,13.4,51.4,26.5c24.2,21.6,37.9,52.8,43.5,84.3c6.4,37.4,5.2,76.5-5.8,113c-8.6,28.4-24.6,55.6-49,73.2
			c-15.6,11.4-34.2,18.5-53.3,21.2c-19.8,2.9-39.9,1.7-59.8,1.8c-35.2-0.1-70.4,0.1-105.6-0.1c0.1-98.7,0-197.4,0-296
			C-1414.8,65.4-1416.7,57.3-1413.4,50z M-1357.8,88.2c0,78.5,0,157.1,0,235.6c22,0.2,44,2.5,66.1,1.6c16.7-0.7,33.8-3.1,48.8-11.1
			c13.2-6.9,23.6-18.5,30.5-31.6c8-15.2,12-32.1,14.5-48.9c3.4-24.6,3.1-50-2.8-74.2c-4.3-17.5-11.9-34.6-24.4-47.7
			c-10.9-11.8-26-19-41.6-22.2C-1296.8,83.7-1327.5,88.1-1357.8,88.2z"/>
	</g>
	<path class="st1" d="M-1502.6,42.8c13.7,0,27.4-0.1,41.2,0.1c5.5,0,11.7,1.9,14.2,7.2c3.4,7.2,1.7,15.5,1.7,23.1
		c-0.1,98.7,0,197.4,0,296.1c-14.3,0-28.5,0-42.8,0c-4.9,0.1-10.6-1.7-12.8-6.5c-3.2-7.1-1.4-15.1-1.5-22.6
		C-1502.6,241-1502.6,141.9-1502.6,42.8z"/>
</g>
<path class="st2" d="M-1202.4,560.1"/>
</svg>
